# xmcd
#
# Track frame offsets: 
#        150
#        16631
#        43830
#        63017
#        83874
#        105487
#        129655
#        147537
#        162824
#
# Disc length: 2381 seconds
#
# Revision: 0
# Processed by: cddbd v1.5.2PL0 Copyright (c) Steve Scherf et al.
# Submitted via: ExactAudioCopy v0.95b4
#
DISCID=6d094b09
DTITLE=Lex Grey and The Urban Pioneers - Beg Borrow Steal
DYEAR=1996
DGENRE=Blues
TTITLE0=Dirty Sleazy Blues
TTITLE1=Gospel (of Modern Times)
TTITLE2=Only Love
TTITLE3=Rather Die
TTITLE4=Lawless
TTITLE5=Mans World
TTITLE6=Hold On
TTITLE7=Its A Lie
TTITLE8=Shoot "Em Up
EXTD=
EXTT0=
EXTT1=
EXTT2=
EXTT3=
EXTT4=
EXTT5=
EXTT6=
EXTT7=
EXTT8=
PLAYORDER=
